Coordinates
version=1
nRows=19
nColumns=24
inDegrees=yes

Units are S.I. units (second, meters, Newtons, ...)
Angles are in degrees.

endheader
time	pelvis_tilt	pelvis_list	pelvis_rotation	pelvis_tx	pelvis_ty	pelvis_tz	hip_flexion_r	hip_adduction_r	hip_rotation_r	knee_angle_r	ankle_angle_r	subtalar_angle_r	mtp_angle_r	hip_flexion_l	hip_adduction_l	hip_rotation_l	knee_angle_l	ankle_angle_l	subtalar_angle_l	mtp_angle_l	lumbar_extension	lumbar_bending	lumbar_rotation
      0.91700000	      7.79293825	     -4.24291010	     -3.73076143	     -0.20771982	      1.01011991	      0.34111042	    -21.34276922	      5.80853112	     -5.82767607	     -8.03252561	      8.46406218	     -6.64329310	     -4.60738817	     13.74794070	     -4.56107690	     -8.46626142	     -1.03111534	      1.31684435	    -13.20196825	    -11.24758144	    -20.42544277	      3.93864319	      7.05903098
      0.92116667	      7.87327563	     -4.13153192	     -3.89321717	     -0.20174815	      1.00971845	      0.34161539	    -21.56632758	      5.56219160	     -5.78520703	     -8.48598840	      8.53223042	     -6.36272757	     -4.52505407	     13.57972231	     -4.44485569	     -8.37520835	     -1.41173407	      1.02971565	    -13.42734984	    -11.24739090	    -20.47216864	      3.63823104	      7.20824033
      0.92533333	      7.92738485	     -4.00562399	     -4.05557702	     -0.19574812	      1.00934410	      0.34208711	    -21.74044053	      5.29713168	     -5.74962439	     -8.97414515	      8.55746744	     -6.08484649	     -4.43158151	     13.44219017	     -4.31162397	     -8.27483021	     -1.82111353	      0.68429367	    -13.68438764	    -11.23844002	    -20.49377445	      3.33581800	      7.35370156
      0.92950000	      7.98379943	     -3.87633489	     -4.20548589	     -0.18974858	      1.00903397	      0.34251439	    -21.89399169	      5.02657879	     -5.72963494	     -9.49793157	      8.55004248	     -5.79856060	     -4.32002249	     13.30479210	     -4.17044098	     -8.14804819	     -2.24983163	      0.28528843	    -13.97787284	    -11.21909968	    -20.51568718	      3.02953281	      7.49783743
      0.93366667	      8.05798763	     -3.73938206	     -4.33703887	     -0.18375307	      1.00880131	      0.34287969	    -22.04223064	      4.74687842	     -5.73128127	    -10.05978329	      8.49752652	     -5.52175384	     -4.19204092	     13.15260806	     -4.01347373	     -8.00594837	     -2.69308357	     -0.16274818	    -14.30069655	    -11.19002153	    -20.56003410	      2.72431702	      7.61944578
      0.93783333	      8.11813777	     -3.59088445	     -4.46111905	     -0.17772951	      1.00861630	      0.34319930	    -22.14926963	      4.45276816	     -5.74993802	    -10.66437499	      8.39949260	     -5.24079547	     -4.04579384	     13.01399944	     -3.84132645	     -7.85707664	     -3.14148029	     -0.65145457	    -14.64505559	    -11.15133046	    -20.58290182	      2.41020080	      7.72156618
      0.94200000	      8.14793722	     -3.44816385	     -4.57085290	     -0.17170013	      1.00845559	      0.34347871	    -22.19572387	      4.16922759	     -5.77415804	    -11.31471644	      8.25228960	     -4.98430801	     -3.89581438	     12.91808514	     -3.67595656	     -7.70965633	     -3.61104168	     -1.18423309	    -14.99945215	    -11.10930797	    -20.57048074	      2.10789843	      7.80491789
      0.94616667	      8.25480998	     -3.29826123	     -4.53857146	     -0.16574040	      1.00839669	      0.34332403	    -22.29124484	      3.89085433	     -6.02424628	    -12.01769113	      8.07413943	     -4.60298922	     -3.36380500	     12.75211428	     -3.43687431	     -7.29963773	     -4.05523823	     -1.76631095	    -15.59771431	    -10.93764492	    -20.65939411	      1.86168171	      7.84001714
      0.95033333	      8.24671075	     -3.14575150	     -4.68027092	     -0.15965681	      1.00833123	      0.34368591	    -22.23701394	      3.59127861	     -5.97922084	    -12.76757171	      7.81358803	     -4.44997136	     -3.22288412	     12.69909339	     -3.28638410	     -7.29027229	     -4.55931769	     -2.28368064	    -15.82125355	    -10.89751380	    -20.59736022	      1.53936285	      7.82990906
      0.95450000	      8.28646359	     -2.97910166	     -4.72607769	     -0.15366836	      1.00834210	      0.34364968	    -22.17280716	      3.26905732	     -6.13634223	    -13.63004844	      7.61687096	     -4.12539908	     -2.84021527	     12.58968177	     -3.05884328	     -7.01889330	     -5.00923117	     -2.86921603	    -16.43415399	    -10.77979423	    -20.60544460	      1.24314221	      7.95264219
      0.95866667	      8.29134205	     -2.81127423	     -4.75613222	     -0.14761330	      1.00837805	      0.34362194	    -22.05323145	      2.95726040	     -6.27933126	    -14.51409197	      7.28664109	     -3.86834389	     -2.41033671	     12.52596411	     -2.84233062	     -6.81827638	     -5.47905970	     -3.46754568	    -16.89009662	    -10.65214253	    -20.56519569	      0.96138710	      7.90192101
      0.96283333	      8.32417096	     -2.67614818	     -4.64648870	     -0.14163620	      1.00845726	      0.34319778	    -21.93744538	      2.69970039	     -6.58875544	    -15.43476911	      6.86302774	     -3.49530556	     -1.45828137	     12.46056516	     -2.61228723	     -6.42024200	     -5.95941725	     -4.09810056	    -17.43479273	    -10.37961885	    -20.57692909	      0.78999309	      7.83060798
      0.96700000	      8.28437591	     -2.51284651	     -4.66799563	     -0.13552885	      1.00854637	      0.34318123	    -21.69907218	      2.39465208	     -6.73111029	    -16.42315172	      6.31877896	     -3.47118101	      7.04052945	     12.45987583	     -2.42346513	     -6.33912767	     -6.48607703	     -4.53644552	    -17.67932950	     -8.06973402	    -20.47754968	      0.51045344	      7.72716697
      0.97116667	      8.32858385	     -2.34493674	     -4.71856077	     -0.12949582	      1.00882809	      0.34316729	    -21.50190686	      2.05957152	     -6.82651745	    -17.49808695	      5.82479027	     -3.31330881	      7.07297208	     12.33210935	     -2.22224508	     -6.25638826	     -6.94185377	     -5.02100517	    -18.01996741	     -8.05550401	    -20.48760984	      0.22073741	      7.73649228
      0.97533333	      8.31762339	     -2.18152442	     -4.68953255	     -0.12347118	      1.00904694	      0.34294743	    -21.20664928	      1.74623010	     -7.01603814	    -18.64074161	      5.28914676	     -3.11089346	      7.15885633	     12.29090211	     -2.00831355	     -6.08911504	     -7.43644065	     -5.46636538	    -18.40384660	     -8.03578692	    -20.44092369	     -0.03367836	      7.69619629
      0.97950000	      8.31138362	     -2.01176352	     -4.63901383	     -0.11744486	      1.00930460	      0.34265523	    -20.87733801	      1.42217814	     -7.22785726	    -19.84442121	      4.68786080	     -2.91338401	      7.29831912	     12.24057959	     -1.78283410	     -5.91567038	     -7.92799346	     -5.84483484	    -18.74198140	     -8.01641314	    -20.40263298	     -0.27782797	      7.59319253
      0.98366667	      8.30893421	     -1.83385200	     -4.60670388	     -0.11139516	      1.00962002	      0.34238269	    -20.50792874	      1.07480330	     -7.42747506	    -21.11694094	      4.03000905	     -2.75837952	      7.45045607	     12.16348164	     -1.55603730	     -5.79229977	     -8.39030103	     -6.15971751	    -19.00395793	     -8.00449835	    -20.35388990	     -0.51854328	      7.49422728
      0.98783333	      8.27971097	     -1.66478040	     -4.50057205	     -0.10542662	      1.00988685	      0.34189722	    -20.06765940	      0.74493913	     -7.69356978	    -22.45501322	      3.33566684	     -2.53951420	      7.77003120	     12.14123727	     -1.31411118	     -5.55426480	     -8.89369310	     -6.38914350	    -19.37809386	     -7.99209334	    -20.30014884	     -0.73394535	      7.34959585
      0.99200000	      8.30878920	     -1.47660929	     -4.48999050	     -0.09936811	      1.01033904	      0.34174064	    -19.66239874	      0.37874794	     -7.82274404	    -23.81332325	      2.52928588	     -2.50361431	      7.86222147	     12.00444612	     -1.09865156	     -5.54288124	     -9.33740168	     -6.54717862	    -19.42682964	     -7.99198587	    -20.29007928	     -1.02362031	      7.26223630
